# xmcd CD database file
#
# Track frame offsets:
#	150
#	11635
#	24952
#
# Disc length: 576 seconds
#
# Revision: 1
# Processed by: cddbd v1.5.2PL0 Copyright (c) Steve Scherf et al.
# Submitted via: CDex 1.70beta2
#
DISCID=15023e03
DTITLE=CAPTAIN HEDGE HOG - MONDAY JUNCTION
DYEAR=2002
DGENRE=Punk Rock
TTITLE0=LEMON
TTITLE1=MELODY
TTITLE2=MONDAY JUNCTION
EXTD=YEAR: 2002
EXTT0=
EXTT1=
EXTT2=
PLAYORDER=
